<!DOCTYPE svg PUBLIC "-//W3C//DTD SVG 1.1//EN" "http://www.w3.org/Graphics/SVG/1.1/DTD/svg11.dtd">
<!-- Uploaded to: SVG Repo, www.svgrepo.com, Transformed by: SVG Repo Mixer Tools -->
<svg width="800px" height="800px" viewBox="0 0 1024 1024" class="icon" version="1.1" xmlns="http://www.w3.org/2000/svg" fill="#000000">
<g id="SVGRepo_bgCarrier" stroke-width="0"/>
<g id="SVGRepo_tracerCarrier" stroke-linecap="round" stroke-linejoin="round"/>
<g id="SVGRepo_iconCarrier">
<path d="M512 1002.666667a490.666667 490.666667 0 1 1 490.666667-490.666667 490.666667 490.666667 0 0 1-490.666667 490.666667z" fill="#5C8374"/>
<path d="M512 42.666667A469.333333 469.333333 0 1 1 42.666667 512 469.333333 469.333333 0 0 1 512 42.666667m0-42.666667a512 512 0 1 0 512 512A512 512 0 0 0 512 0z" fill="#040D12"/>
<path d="M464.853333 529.706667L285.226667 77.013333a485.76 485.76 0 0 1 128-45.44l146.56 462.933334 179.626666 452.693333a485.76 485.76 0 0 1-128 45.44z" fill="#93B1A6"/>
<path d="M398.08 56.746667l140.586667 444.16v2.986666l171.946666 433.066667a463.786667 463.786667 0 0 1-85.333333 30.72l-140.16-444.586667v-2.986666l-172.8-432.853334a463.786667 463.786667 0 0 1 85.333333-30.72M426.666667 7.04a508.373333 508.373333 0 0 0-168.746667 60.16l186.24 469.333333L597.333333 1016.96a508.373333 508.373333 0 0 0 168.746667-60.16l-186.24-469.333333L426.666667 7.04z" fill="#040D12"/>
<path d="M512 704a192 192 0 1 1 192-192 192 192 0 0 1-192 192z" fill="#183D3D"/>
<path d="M512 341.333333a170.666667 170.666667 0 1 1-170.666667 170.666667 170.666667 170.666667 0 0 1 170.666667-170.666667m0-42.666666a213.333333 213.333333 0 1 0 213.333333 213.333333 213.333333 213.333333 0 0 0-213.333333-213.333333z" fill="#040D12"/>
<path d="M512 512m-90.666667 0a90.666667 90.666667 0 1 0 181.333334 0 90.666667 90.666667 0 1 0-181.333334 0Z" fill="#FFFFFF"/>
<path d="M512 442.666667A69.333333 69.333333 0 1 1 442.666667 512 69.333333 69.333333 0 0 1 512 442.666667m0-42.666667A112 112 0 1 0 624 512 112 112 0 0 0 512 400z" fill="#040D12"/>
</g>
</svg>